<?xml version="1.0" encoding="UTF-8" standalone="no"?>
<svg
   xmlns:dc="http://purl.org/dc/elements/1.1/"
   xmlns:cc="http://creativecommons.org/ns#"
   xmlns:rdf="http://www.w3.org/1999/02/22-rdf-syntax-ns#"
   xmlns:svg="http://www.w3.org/2000/svg"
   xmlns="http://www.w3.org/2000/svg"
   xmlns:sodipodi="http://sodipodi.sourceforge.net/DTD/sodipodi-0.dtd"
   xmlns:inkscape="http://www.inkscape.org/namespaces/inkscape"
   version="1.1"
   id="Layer_1"
   x="0px"
   y="0px"
   viewBox="0 0 58.5 71.5"
   xml:space="preserve"
   sodipodi:docname="logo-templeton-1.svg"
   inkscape:version="1.0.2 (e86c8708, 2021-01-15)"
   width="45"
   height="55"><metadata
   id="metadata166"><rdf:RDF><cc:Work
       rdf:about=""><dc:format>image/svg+xml</dc:format><dc:type
         rdf:resource="http://purl.org/dc/dcmitype/StillImage" /><dc:title></dc:title></cc:Work></rdf:RDF></metadata><defs
   id="defs164" /><sodipodi:namedview
   pagecolor="#ffffff"
   bordercolor="#666666"
   borderopacity="1"
   objecttolerance="10"
   gridtolerance="10"
   guidetolerance="10"
   inkscape:pageopacity="0"
   inkscape:pageshadow="2"
   inkscape:window-width="1792"
   inkscape:window-height="982"
   id="namedview162"
   showgrid="false"
   inkscape:zoom="7.0865801"
   inkscape:cx="101.95327"
   inkscape:cy="26.404398"
   inkscape:window-x="0"
   inkscape:window-y="25"
   inkscape:window-maximized="1"
   inkscape:current-layer="g159"
   inkscape:document-rotation="0"
   scale-x="1.3" />
<style
   type="text/css"
   id="style107">
	.st0{fill:#ECECEC;}
	.st1{fill:#71C0C5;}
</style>
<g
   id="g159">
	
	
	
	
	
	
	
	
	
	
	
	
	
	<path
   class="st1"
   d="m 57.4,36.5 -35.1,6.2 6.5,-2.8 C 28.9,39.8 29,39.7 29,39.5 28.9,39.4 28.8,39.3 28.6,39.3 l -6.5,2.8 31.5,-23.5 c 0.1,-0.1 0.1,-0.3 0.1,-0.4 -0.1,-0.1 -0.3,-0.1 -0.4,-0.1 l -31.6,23.6 5.4,-6.4 c 0.1,-0.1 0.1,-0.3 0,-0.4 -0.1,-0.1 -0.3,-0.1 -0.4,0 L 21.3,41.4 38.9,6.1 C 39,6 39,5.9 38.8,5.8 38.7,5.7 38.5,5.8 38.5,5.9 L 20.8,41.1 23,31.7 c 0,-0.2 -0.1,-0.3 -0.2,-0.4 -0.2,0 -0.3,0.1 -0.4,0.2 l -2.2,9.4 V 0.8 c 0,-0.2 -0.1,-0.3 -0.3,-0.3 -0.2,0 -0.3,0.1 -0.3,0.3 V 40.9 L 17.1,30.3 c 0,-0.2 -0.2,-0.3 -0.4,-0.2 -0.2,0 -0.3,0.2 -0.2,0.4 L 19.1,41 18.7,40.3 c -0.1,-0.1 -0.2,-0.2 -0.4,-0.1 -0.1,0.1 -0.2,0.2 -0.1,0.4 l 0.4,0.7 -8,-9.5 c -0.1,-0.1 -0.3,-0.1 -0.4,0 -0.1,0.1 -0.1,0.3 0,0.4 l 8,9.5 -1,-0.7 c -0.1,-0.1 -0.3,-0.1 -0.4,0.1 -0.1,0.1 -0.1,0.3 0.1,0.4 l 1,0.7 -13.2,-5.7 c -0.2,-0.1 -0.3,0 -0.4,0.2 -0.1,0.1 0,0.3 0.2,0.4 l 13.1,5.6 -1.4,-0.2 c -0.2,0 -0.3,0.1 -0.3,0.2 0,0.2 0.1,0.3 0.2,0.3 l 1.4,0.2 -16.5,1 c -0.2,0 -0.3,0.1 -0.3,0.3 0,0.2 0.1,0.3 0.3,0.3 0,0 0,0 0,0 l 16.5,-1 -1.6,0.5 c -0.2,0 -0.2,0.2 -0.2,0.4 0,0.1 0.2,0.2 0.3,0.2 0,0 0.1,0 0.1,0 l 1.6,-0.5 -15.7,9 c -0.1,0.1 -0.2,0.3 -0.1,0.4 0,0.1 0.1,0.2 0.2,0.2 0.1,0 0.1,0 0.1,0 l 15.7,-9.1 -1.5,1.4 c -0.1,0.1 -0.1,0.3 0,0.4 0.1,0.1 0.1,0.1 0.2,0.1 0.1,0 0.1,0 0.2,-0.1 L 18.3,45.3 7,62.5 c 0,0.1 0,0.3 0.1,0.4 0,0 0.1,0 0.2,0 0.1,0 0.2,0 0.2,-0.1 l 11.3,-17.2 -0.9,2.6 c -0.1,0.2 0,0.3 0.2,0.4 0,0 0.1,0 0.1,0 0.1,0 0.2,-0.1 0.3,-0.2 l 0.9,-2.6 -2.7,23.1 c 0,0.2 0.1,0.3 0.3,0.3 0,0 0,0 0,0 0.1,0 0.3,-0.1 0.3,-0.3 l 2.7,-23 0.4,3.4 c 0,0.1 0.1,0.3 0.3,0.3 0,0 0,0 0,0 0.2,0 0.3,-0.2 0.3,-0.3 l -0.4,-3.4 9.1,24.8 c 0,0.1 0.2,0.2 0.3,0.2 0,0 0.1,0 0.1,0 0.2,-0.1 0.2,-0.2 0.2,-0.4 l -9.1,-24.8 2.2,3.4 c 0.1,0.1 0.2,0.1 0.2,0.1 0.1,0 0.1,0 0.2,0 0.1,-0.1 0.2,-0.3 0.1,-0.4 l -2.2,-3.4 21.6,20.3 c 0.1,0.1 0.1,0.1 0.2,0.1 0.1,0 0.2,0 0.2,-0.1 0.1,-0.1 0.1,-0.3 0,-0.4 L 22,44.9 l 4.4,2.6 c 0,0 0.1,0 0.1,0 0.1,0 0.2,-0.1 0.3,-0.1 0.1,-0.1 0,-0.3 -0.1,-0.4 L 22.3,44.4 54.5,54 c 0,0 0.1,0 0.1,0 0.1,0 0.2,-0.1 0.3,-0.2 0,-0.2 0,-0.3 -0.2,-0.4 l -32.2,-9.6 6,0.3 c 0,0 0,0 0,0 0.2,0 0.3,-0.1 0.3,-0.3 0,-0.2 -0.1,-0.3 -0.3,-0.3 L 22.4,43.1 57.5,37 c 0.1,0 0.2,-0.2 0.2,-0.3 0,-0.2 -0.1,-0.3 -0.3,-0.2 z"
   id="path135" />
	
</g>
</svg>
